<svg width="39" height="47" viewBox="0 0 39 47" fill="none" xmlns="http://www.w3.org/2000/svg">
<path fill-rule="evenodd" clip-rule="evenodd" d="M27.9546 0.0238611C25.9778 0.214361 23.6571 1.3593 22.0289 2.94736C20.287 4.64628 19.1099 7.00795 18.9035 9.21795C18.8718 9.55733 18.8864 10.3649 18.9283 10.5905L18.9566 10.743L19.1528 10.7708C19.4391 10.8115 20.1437 10.787 20.5056 10.7239C21.8867 10.4831 23.3251 9.80336 24.6106 8.78394C24.9993 8.47571 25.718 7.74832 26.0718 7.30502C26.5868 6.65981 27.0241 5.97031 27.3771 5.2468C27.8913 4.19306 28.1959 3.19622 28.3625 2.02226C28.4106 1.68297 28.4328 0.625799 28.3975 0.35281C28.3488 -0.0241183 28.358 -0.00209532 28.25 0.00142652C28.1979 0.00311883 28.065 0.013227 27.9546 0.0238611ZM27.069 11.3344C26.5368 11.3658 25.8149 11.4822 25.1823 11.6385C24.3495 11.8443 23.7246 12.0567 22.2551 12.6334C21.0628 13.1013 20.693 13.2316 20.2133 13.353C19.6048 13.5071 19.0711 13.5032 18.4131 13.3401C17.9472 13.2246 17.6067 13.1035 16.3822 12.618C15.2038 12.1508 14.7742 11.9952 14.2166 11.8339C12.8588 11.4412 11.7753 11.3539 10.4089 11.5269C8.93558 11.7134 7.51008 12.2017 6.22383 12.9604C3.72316 14.4353 1.85496 16.8175 0.849063 19.8138C0.106114 22.0269 -0.153999 24.5356 0.0736402 27.2926C0.282092 29.817 0.899215 32.4966 1.85649 35.0338C2.47096 36.6624 3.30196 38.378 4.12728 39.722C4.88185 40.9507 6.40269 43.0136 7.34755 44.09C9.10506 46.0922 10.7351 46.945 12.5564 46.815C13.5154 46.7465 14.1234 46.5756 15.5996 45.9597C16.5519 45.5623 16.9496 45.4137 17.4421 45.2713C18.9314 44.8406 20.6142 44.8028 22.0721 45.1671C22.6823 45.3196 23.0335 45.4466 24.0732 45.8908C25.3628 46.4417 25.8568 46.5974 26.6688 46.7089C27.0294 46.7584 27.8024 46.7776 28.1096 46.7447C29.5288 46.5927 30.8238 45.8881 32.1122 44.5669C32.8985 43.7607 33.6939 42.7472 34.8376 41.0941C36.0984 39.2717 37.2212 37.0471 37.9193 34.9881C38.1314 34.3623 38.1327 34.3564 38.0647 34.3354C37.8345 34.2642 36.9537 33.7807 36.4911 33.4717C33.8482 31.7062 32.2525 29.1609 31.9076 26.1606C31.6208 23.665 32.1712 21.2914 33.5066 19.2656C34.2807 18.0912 35.3993 16.9715 36.5997 16.1691C36.7538 16.0662 36.8799 15.9708 36.8799 15.9573C36.8799 15.9185 36.5659 15.4984 36.2934 15.1723C34.3662 12.867 31.6425 11.5423 28.4183 11.3422C28.0712 11.3206 27.371 11.3166 27.069 11.3344Z" fill="#2D2D2D"/>
</svg>
