<svg width="214" height="35" viewBox="0 0 214 35" fill="none" xmlns="http://www.w3.org/2000/svg">
<path d="M174.099 0.526001C174.463 0.408227 179.261 0.37186 179.978 0.471313C180.077 0.837933 180.095 33.4693 179.988 33.9586H174.118C174.099 33.2258 174.121 32.503 174.105 31.6969C173.977 31.8197 173.901 31.8826 173.836 31.9557C172.469 33.5024 170.747 34.312 168.69 34.401C166.701 34.4874 164.79 34.1544 163.015 33.2174C160.89 32.0973 159.49 30.344 158.608 28.1432C157.925 26.4395 157.637 24.657 157.577 22.8356C157.506 20.7079 157.723 18.6112 158.427 16.5856C159.142 14.5389 160.281 12.7931 162.074 11.5211C163.327 10.6287 164.725 10.0843 166.243 9.86975C166.934 9.77292 167.635 9.68643 168.332 9.6969C170.467 9.73363 172.346 10.4374 173.875 11.9684C173.924 12.0207 173.979 12.0681 174.097 12.1754V0.528931L174.099 0.526001ZM6.62555 10.2516C8.18515 9.72306 9.78921 9.60318 11.4273 9.74182C12.4296 9.82557 13.4167 9.96658 14.3746 10.2701C17.2167 11.1678 18.9859 13.094 19.7632 15.9518V15.9498C20.0955 17.1719 20.2115 18.4226 20.2115 19.6813C20.2141 24.2325 20.2115 28.7814 20.2115 33.3326C20.2115 33.4739 20.1975 33.6152 20.1871 33.7877H15.3326C15.1363 32.8326 14.94 31.8773 14.7437 30.9196C14.7019 30.896 14.6576 30.8695 14.6158 30.8434C14.5766 30.9271 14.5502 31.0244 14.4927 31.0924C13.0507 32.8041 11.2284 33.8506 9.00641 34.1725C7.63784 34.3713 6.27714 34.3353 4.94781 33.9166C2.31232 33.087 0.794115 31.2731 0.283752 28.5826C0.0534395 27.3761 0.079533 26.1797 0.430237 24.9967C0.958941 23.2172 2.08208 21.9038 3.63922 20.9381C4.99754 20.0954 6.49207 19.6401 8.065 19.4098C9.90219 19.1403 11.7502 19.2683 13.5953 19.2369C13.7704 19.2343 13.9455 19.2311 14.1207 19.2233C14.1495 19.2233 14.176 19.1995 14.3043 19.1393C14.252 18.4877 14.2495 17.8152 14.1343 17.1637C13.959 16.185 13.3516 15.494 12.4332 15.1354C11.0879 14.6119 9.70536 14.5515 8.32086 14.986C7.36046 15.287 6.67763 15.9312 6.21442 16.8131C6.12029 16.9961 6.0393 17.1844 5.95563 17.3649C5.61016 17.3937 1.83278 16.6041 1.07379 16.3424C1.14444 16.0624 1.19707 15.7689 1.28864 15.4889C2.16539 12.8272 4.01097 11.1388 6.62555 10.2516ZM121.371 10.1598C122.849 9.71227 124.359 9.61361 125.901 9.74182C127.097 9.84389 128.267 10.0343 129.387 10.4635C131.981 11.4554 133.538 13.3637 134.24 16.0123L134.242 16.0094C134.545 17.1531 134.667 18.3232 134.667 19.5035V33.3453C134.667 33.4839 134.653 33.6256 134.642 33.7955H129.798C129.6 32.8196 129.403 31.8619 129.194 30.8414C129.076 30.967 129.01 31.0296 128.95 31.1002C127.508 32.8168 125.682 33.8557 123.462 34.1725C121.73 34.4211 120.03 34.2957 118.423 33.5367C116.369 32.5632 115.197 30.9066 114.776 28.7086C114.501 27.2824 114.535 25.8557 115.066 24.4791C115.621 23.0345 116.594 21.9267 117.877 21.0787C119.099 20.27 120.455 19.7865 121.889 19.5143C122.986 19.3076 124.095 19.2317 125.212 19.2369C126.359 19.2422 127.503 19.2369 128.697 19.2369C128.744 18.1979 128.812 17.1872 128.252 16.2633C127.88 15.6457 127.324 15.2582 126.66 15.0358C125.519 14.6564 124.346 14.5986 123.176 14.8629C121.986 15.1325 121.133 15.853 120.607 16.9547C120.57 17.0253 120.541 17.0983 120.507 17.1715C120.473 17.2421 120.439 17.3126 120.378 17.4381C118.774 17.0874 117.17 16.7393 115.54 16.3834C115.663 15.5984 115.914 14.9022 116.262 14.2428C117.369 12.1413 119.125 10.8376 121.371 10.1598ZM206.354 29.4879C206.671 27.4205 208.544 25.9702 210.793 26.2633C212.059 26.4308 213.028 27.031 213.687 28.1276C213.899 28.4808 214.001 28.8522 213.991 29.2604C213.988 29.3362 213.988 29.4121 213.988 29.4879C213.985 29.7156 213.988 29.9409 213.988 30.1686L213.986 30.1637C213.986 30.3703 213.97 30.5798 213.988 30.7838C214.087 31.8463 213.566 32.6183 212.799 33.2516C211.548 34.2826 209.607 34.4083 208.183 33.5787C206.793 32.77 206.1 31.1577 206.354 29.4879ZM103.032 26.274C103.443 25.23 103.681 24.1438 103.963 23.0709C104.251 21.9796 104.529 20.8849 104.812 19.7936C105.089 18.718 105.366 17.6423 105.641 16.5641C105.921 15.4701 106.199 14.3762 106.479 13.2848V13.2926C106.762 12.2013 107.047 11.1122 107.333 10.0104H113.245C113.195 10.1962 113.16 10.3612 113.108 10.5182C111.574 15.263 110.041 20.0107 108.507 24.7555C107.563 27.671 106.62 30.5899 105.675 33.5055C105.503 34.0391 105.576 33.9948 105.032 33.9948H100.732C100.622 33.9948 100.509 33.984 100.344 33.9762C98.9965 28.8884 97.6489 23.8003 96.2984 18.7125L96.2115 18.7076C94.8636 23.785 93.5187 28.8626 92.1656 33.9635H86.9839C86.7196 33.1705 86.4572 32.3876 86.2007 31.6051C85.4418 29.2969 84.6882 26.9859 83.9214 24.6803C83.8272 24.395 83.8223 24.141 83.9166 23.8531C84.5185 21.9949 85.1017 20.1283 85.7037 18.2701C85.8345 17.8646 86.0176 17.4771 86.274 17.0768C87.3549 20.1625 88.4362 23.2489 89.5172 26.3346C89.5511 26.332 89.5825 26.3287 89.6138 26.3287C90.9119 20.8903 92.2125 15.4518 93.5132 10.0055H98.9966C100.342 15.4283 101.687 20.8512 103.032 26.274ZM192.859 9.46155C195.398 9.06374 199.148 10.4349 200.975 12.9918C201.085 13.1436 201.183 13.3034 201.308 13.4918C200.141 14.557 198.991 15.6044 197.824 16.6696C197.716 16.5465 197.635 16.4542 197.554 16.36C196.646 15.2898 195.486 14.693 194.094 14.5621C193.566 14.5125 193.048 14.6254 192.58 14.8922C191.42 15.5544 191.247 17.0278 192.265 17.902C192.629 18.216 193.077 18.4698 193.527 18.6451C194.681 19.09 195.864 19.4643 197.026 19.8883C198.24 20.3332 199.405 20.8725 200.423 21.6891V21.691C201.897 22.8687 202.574 24.4079 202.519 26.2789C202.412 29.9561 200.091 32.8274 196.445 33.691C191.81 34.7876 187.269 32.686 185.042 28.5875C184.877 28.2841 184.746 27.9596 184.579 27.6012C186.183 26.7245 187.725 25.8792 189.297 25.0182C189.402 25.2352 189.491 25.4181 189.578 25.6012C189.97 26.4256 190.449 27.1932 191.145 27.8004C192.388 28.8863 193.822 29.2106 195.411 28.7711C196.45 28.4832 197.05 27.7814 197.175 26.6979C197.251 26.0516 197.078 25.4762 196.565 25.0758C196.157 24.7566 195.707 24.4629 195.231 24.2614C194.252 23.8453 193.236 23.5237 192.253 23.1207C191.373 22.7596 190.485 22.3951 189.656 21.9371C185.838 19.8302 185.765 15.4256 187.453 12.819C188.722 10.8564 190.564 9.82277 192.859 9.46155ZM145.897 13.7115C148.368 10.2284 151.592 8.9744 155.777 10.1285C155.421 11.9709 155.07 13.7691 154.719 15.5748C154.233 15.376 153.811 15.1382 153.356 15.0309C151.571 14.6121 149.982 15.0387 148.631 16.274C147.642 17.1796 147.069 18.3443 146.666 19.6031C146.121 21.299 145.928 23.0501 145.915 24.8219C145.894 27.6222 145.907 30.42 145.907 33.2203V33.7828C143.941 33.9372 141.991 33.8931 139.992 33.9742V10.0739C140.324 9.96393 145.206 9.93237 145.897 10.0397V13.7115ZM84.8033 10.0006C84.7901 10.3625 77.5668 33.2832 77.2476 33.9713H71.9634C70.6156 28.8861 69.2654 23.8003 67.9175 18.7125C67.8889 18.7099 67.8574 18.7048 67.8287 18.7047C66.4834 23.7794 65.1378 28.8574 63.7847 33.9557H58.6314C58.5843 33.8432 58.5239 33.7174 58.482 33.5865C57.5477 30.6003 56.6159 27.6112 55.6763 24.6276C55.5953 24.3713 55.5927 24.1436 55.6685 23.8873C56.226 22.016 56.7657 20.1366 57.3257 18.2653C57.4488 17.8596 57.6345 17.4719 57.7916 17.0768H57.8912C58.972 20.1597 60.0496 23.2458 61.1304 26.3287C61.1644 26.3235 61.1961 26.3206 61.23 26.318C62.5255 20.8901 63.8212 15.4648 65.1246 10.0133H70.6129C71.9581 15.4361 73.3037 20.862 74.649 26.2848C75.2378 24.5078 75.6665 22.6937 76.1402 20.8932C76.6165 19.0796 77.0718 17.2631 77.5377 15.4469C78.0035 13.6359 78.4725 11.8221 78.941 10.0006H84.8033ZM48.9029 33.8014H43.7164C42.3711 28.7711 41.0255 23.7486 39.6802 18.7262C39.6489 18.7288 39.6146 18.7321 39.5806 18.7321C38.2355 23.8039 36.8903 28.8731 35.5425 33.9606H30.3609C27.838 26.0463 25.312 18.1244 22.7759 10.1656H28.7144C30.1094 15.5387 31.504 20.9095 32.899 26.2799C32.933 26.2825 32.9675 26.2877 33.0015 26.2877C34.3441 20.9226 35.6889 15.5546 37.0367 10.1686H42.5279C43.8731 15.5442 45.2185 20.9093 46.5611 26.277C46.5951 26.2796 46.6316 26.2819 46.6656 26.2819C48.0605 20.9141 49.4558 15.5433 50.856 10.152V10.15C52.7272 10.0977 54.5702 10.0451 56.4937 9.9928C53.9524 17.9622 51.4259 25.8818 48.9029 33.8014ZM172.846 16.2662C171.166 14.4735 168.418 14.1937 166.423 15.6305C165.392 16.3738 164.74 17.3945 164.342 18.5826C163.727 20.4172 163.681 22.2938 164.021 24.1832C164.217 25.2743 164.604 26.2922 165.266 27.1949C166.672 29.1081 169.108 29.7888 171.254 28.8414C172.574 28.2578 173.435 27.2216 173.998 25.9235L173.995 25.9264C174.536 24.6806 174.707 23.3633 174.733 21.7067C174.699 21.3506 174.67 20.6807 174.563 20.024C174.333 18.6215 173.841 17.3287 172.846 16.2662ZM9.88922 23.9791C9.49406 23.9817 9.09325 24.0152 8.70856 24.0963C7.3163 24.3842 6.47365 25.3686 6.40289 26.7477C6.34531 27.8783 7.02348 28.836 8.10699 29.15C8.7035 29.3226 9.30248 29.2631 9.89899 29.1559C11.1709 28.9256 12.2814 28.3811 13.1451 27.4049L13.147 27.4078C13.9975 26.4422 14.3402 25.3087 14.2408 24.0055C14.1075 23.995 14.0003 23.9791 13.8931 23.9791C12.5585 23.9791 11.2239 23.966 9.88922 23.9791ZM128.579 23.9889C127.035 23.9915 125.49 23.9659 123.949 24.0104C123.219 24.0313 122.504 24.2199 121.874 24.6334C121.002 25.2091 120.636 26.0567 120.735 27.0485C120.855 28.2812 121.983 29.2235 123.229 29.2496C124.135 29.2706 124.996 29.0803 125.818 28.7086H125.82C127.796 27.8135 128.862 26.0831 128.697 24.0338C128.637 24.0103 128.607 23.9889 128.579 23.9889Z" fill="#2D2D2D"/>
</svg>
