<svg width="54" height="35" viewBox="0 0 54 35" fill="none" xmlns="http://www.w3.org/2000/svg">
<path d="M21.6662 15.6143C21.6662 15.6143 26.7466 15.2371 26.7466 9.27955C26.7466 3.32155 22.5902 0.41394 17.3252 0.41394H0V33.7081H17.3252C17.3252 33.7081 27.9016 34.0421 27.9016 23.8812C27.9016 23.8813 28.3627 15.6143 21.6662 15.6143ZM16.0781 6.3316H17.3252C17.3252 6.3316 19.6802 6.33159 19.6802 9.7957C19.6802 13.2594 18.2952 13.7616 16.7242 13.7616H7.63369V6.3316H16.0781ZM16.8356 27.7906H7.63369V18.8932H17.3252C17.3252 18.8932 20.8352 18.8472 20.8352 23.4655C20.8352 27.3599 18.2135 27.7612 16.8356 27.7906ZM42.007 8.88495C29.2031 8.88495 29.2145 21.6776 29.2145 21.6776C29.2145 21.6776 28.336 34.4045 42.007 34.4045C42.007 34.4045 53.3994 35.0553 53.3994 25.5511H47.5404C47.5404 25.5511 47.7358 29.1302 42.2024 29.1302C42.2024 29.1302 36.3425 29.5229 36.3425 23.3378H53.5948C53.5948 23.3377 55.4825 8.88495 42.007 8.88495ZM36.2781 18.8932C36.2781 18.8932 36.9936 13.7615 42.1371 13.7615C47.2797 13.7615 47.2153 18.8932 47.2153 18.8932H36.2781ZM48.5801 6.47532H34.8437V2.37539H48.5801V6.47532Z" fill="#2D2D2D"/>
</svg>
