<svg width="140" height="35" viewBox="0 0 140 35" fill="none" xmlns="http://www.w3.org/2000/svg">
<path d="M139.409 27.2543C133.601 37.1036 124.4 34.2459 121.635 32.0074C120.459 32.8065 118.396 34.5555 115.647 34.3505C109.79 33.9321 107.698 25.564 107.698 25.564C106.83 25.9028 105.916 26.1074 104.986 26.1707C104.986 28.6267 102.853 34.4885 97.1287 34.4132C90.7062 34.3295 89.3966 24.7565 89.3966 24.7565C89.3966 24.7565 88.7565 25.6435 86.3255 26.5263C86.4469 24.6393 86.359 34.1245 78.6604 34.2626C72.5726 34.3714 70.9283 24.6058 70.9283 24.6058C70.0573 25.387 68.9792 25.8999 67.8237 26.0828C67.9534 24.1665 67.7442 34.2919 60.0414 34.2584C54.8364 34.2375 53.0582 28.2418 53.1963 27.4091C53.372 26.3506 51.439 34.4049 46.3804 34.2793C44.2884 34.2166 42.7403 32.7061 41.778 30.6936C40.4726 32.1873 38.573 34.2793 36.4475 34.2793C32.6275 34.2793 30.9455 31.0827 31.23 21.9615C31.2551 20.8778 31.1756 20.4553 30.1003 20.2879C29.456 20.1791 28.7949 19.9783 28.092 19.8695C27.866 20.6184 25.9665 34.0325 19.4268 34.2877C17.2344 34.3714 16.0336 32.4718 15.0461 31.0618C13.5357 33.0618 11.5399 34.3505 8.70312 34.3505C3.89146 34.3505 0.615356 30.4593 0.615356 25.6644C0.615356 20.8695 3.89146 16.9783 8.70312 16.9783C9.34133 16.977 9.97419 17.0948 10.5692 17.3256C8.9709 2.77348 12.7449 0.501537 16.0461 0.501537C19.2176 0.501537 24.6318 7.85709 17.0126 26.5221C18.6862 32.0869 22.3515 31.7731 24.1046 20.3172C24.4602 17.9867 23.5063 14.8444 24.9916 14.4051C27.7029 13.6018 27.9916 16.0076 29.2635 16.4093C30.6066 16.8277 31.3932 16.79 32.6819 17.062C34.8869 17.4804 35.7488 18.677 35.481 21.3172C35.1588 24.6644 34.594 29.5179 36.3178 30.1037C37.573 30.5221 39.824 27.9614 40.2215 26.5514C40.5379 25.6062 40.7114 24.619 40.7362 23.6226C40.7165 21.7779 40.8833 19.9359 41.2341 18.1247C41.3972 17.4804 41.5772 17.0494 42.3094 17.0201C42.9119 17.0201 44.0123 16.8235 44.4934 17.2001C45.1378 17.6854 45.0583 18.1791 44.983 19.472C44.234 37.9362 50.0038 28.7187 51.7318 21.3381C51.1168 12.9951 51.5394 0.643796 56.7527 0.417858C59.4723 0.309072 60.6731 2.48896 60.807 4.11655C61.1794 8.719 59.0874 16.3172 56.3301 21.4343C54.7569 31.8944 63.217 33.9404 64.5685 25.6184C62.3551 24.564 59.966 20.3046 61.9074 18.2293C62.9995 17.0662 67.5475 18.7398 67.6228 22.3883C69.8529 21.79 70.1333 20.5306 70.1835 20.7398C69.5684 12.3968 70.1375 0.656348 75.3675 0.430409C78.0871 0.321624 79.288 2.50151 79.4219 4.1291C79.7942 8.73155 77.7022 16.3298 74.9449 21.4469C73.3717 31.907 81.8319 33.953 83.1833 25.6309C81.5432 25.3129 78.083 20.7816 80.0788 18.2419C81.1457 16.8821 85.677 19.7063 86.1833 22.5222C88.3255 21.9155 88.6184 20.6979 88.6477 20.9029C88.0326 12.56 88.6017 0.819525 93.8317 0.593587C96.5513 0.484801 97.7522 2.66469 97.886 4.29228C98.2584 8.89473 96.1664 16.493 93.4091 21.6101C91.8359 32.0702 100.296 34.1162 101.647 25.7941C99.3965 25.4175 96.2082 20.6352 98.7689 18.1875C99.7982 17.2084 103.731 19.7482 104.652 22.6435C105.427 22.6064 106.189 22.4248 106.898 22.108C104.857 12.3131 106.375 0.555934 112.003 0.459701C115.045 0.405308 118.015 2.10403 116.71 11.4219C115.455 20.313 110.986 24.0452 110.999 24.1037C111.258 25.1707 113.555 34.0827 119.342 29.3798C119.004 28.6749 118.747 27.9337 118.576 27.1706C117.618 22.2837 119.501 16.7607 124.618 15.8737C127.547 15.3633 130.312 16.79 130.752 20.0076C131.471 25.2753 126.714 29.0911 124.894 29.9196C124.082 29.4593 132.237 34.6894 137.078 24.2083C137.358 23.61 137.697 23.6602 138.137 23.9698C138.463 24.1707 140.229 25.8401 139.409 27.2543ZM12.2135 24.3715C11.9667 23.6351 11.4604 22.0117 11.2847 21.3088C10.3014 20.472 9.61105 20.313 8.35584 20.313C5.54835 20.313 3.89565 22.9071 3.89565 25.7062C3.89565 28.5054 5.69479 31.0995 8.4981 31.0995C10.929 31.0995 12.7826 29.4259 13.3474 27.1037C12.9123 26.2083 12.519 25.3715 12.1926 24.3715H12.2135ZM15.9792 4.35505C14.0085 4.35505 13.339 9.0621 13.4687 13.0746C13.5921 15.832 14.1382 18.5541 15.088 21.1456C15.2177 21.3213 15.1926 21.2084 15.3097 21.3925C18.7239 13.8863 17.3055 4.35086 15.9666 4.35086L15.9792 4.35505ZM57.0498 4.50148C54.5017 4.2086 54.5184 14.8277 54.8322 17.2084C56.1544 15.0913 58.4556 5.0747 57.0498 4.50148ZM75.6646 4.50148C73.1165 4.2086 73.1332 14.8277 73.447 17.2084C74.7608 15.0913 77.0621 5.07051 75.6562 4.50148H75.6646ZM94.133 4.64793C91.5849 4.35505 91.6016 14.9742 91.9154 17.3591C93.2376 15.2419 95.5388 5.22533 94.133 4.64793ZM112.304 3.87807C108.334 4.67722 109.258 17.9197 109.861 20.2419C114.539 13.8152 114.635 3.63957 112.304 3.87807ZM127.191 20.426C127.06 20.0379 126.798 19.7076 126.45 19.4916C126.102 19.2755 125.689 19.1873 125.283 19.2419C123.287 19.5138 121.354 21.9992 122.103 25.7774C122.222 26.3314 122.416 26.8665 122.681 27.3673C127.133 24.3757 127.509 22.0243 127.179 20.426H127.191ZM43.0918 14.1039C42.3762 14.1024 41.6867 13.8348 41.1574 13.3532C40.6282 12.8716 40.297 12.2103 40.2282 11.498C40.1595 10.7857 40.3581 10.0733 40.7855 9.49936C41.2129 8.92539 41.8384 8.5309 42.5406 8.39261C43.2427 8.25431 43.9711 8.38209 44.5843 8.75111C45.1974 9.12012 45.6513 9.70399 45.8578 10.3891C46.0644 11.0743 46.0087 11.8118 45.7016 12.4582C45.3945 13.1045 44.858 13.6136 44.1964 13.8863C43.8461 14.0307 43.4707 14.1046 43.0918 14.1039Z" fill="#2D2D2D"/>
</svg>
