<svg width="104" height="35" viewBox="0 0 104 35" fill="none" xmlns="http://www.w3.org/2000/svg">
<path d="M72.2564 9.81042C74.2828 9.81042 75.8921 10.7101 76.731 11.7098H76.8609V10.327H80.4039V25.577C80.4038 31.8511 76.7039 34.4138 72.3297 34.4139C68.2118 34.4139 65.7331 31.6595 64.7984 29.4071L68.0464 28.0555C68.6249 29.4383 70.0428 31.0702 72.3257 31.0702C75.1257 31.07 76.8609 29.3417 76.8609 26.0897V24.868H76.731C75.896 25.8985 74.2866 26.7987 72.2564 26.7987C68.0083 26.7987 64.1168 23.0982 64.1168 18.3368C64.1169 13.5411 68.0084 9.81044 72.2564 9.81042ZM35.8736 9.81042C40.5699 9.81042 44.397 13.3804 44.397 18.3065C44.397 23.1981 40.5698 26.8026 35.8736 26.8026C31.1774 26.8026 27.3512 23.1981 27.3511 18.3065C27.3511 13.3805 31.1774 9.81048 35.8736 9.81042ZM54.2603 9.81042C58.9566 9.81042 62.7838 13.3804 62.7838 18.3065C62.7837 23.1981 58.9566 26.8026 54.2603 26.8026C49.5642 26.8025 45.7379 23.198 45.7379 18.3065C45.7379 13.3843 49.5641 9.81052 54.2603 9.81042ZM13.5797 0.41394C17.6015 0.41394 20.467 1.99186 22.6197 4.04871L20.0767 6.59265C18.533 5.1447 16.441 4.01843 13.5757 4.01843C8.26674 4.01857 4.11484 8.29729 4.11481 13.6063C4.11481 18.9154 8.26672 23.1941 13.5757 23.1942C17.0194 23.1942 18.9805 21.811 20.2369 20.5546C21.2558 19.5357 21.9267 18.0806 22.191 16.0927L13.5757 16.0966V12.4921H25.7222C25.8409 13.1202 25.9029 13.8635 25.9029 14.6678C25.9028 17.3722 25.1633 20.716 22.7808 23.0985C20.4633 25.5118 17.5021 26.7987 13.5797 26.7987C6.30933 26.7986 0.195862 20.8767 0.195862 13.6063C0.195899 6.33601 6.30935 0.414043 13.5797 0.41394ZM95.8257 9.80652C100.234 9.80652 102.391 13.3146 103.096 15.2108L103.483 16.1766L92.1255 20.8807C92.9951 22.5852 94.3477 23.455 96.2437 23.455C98.1435 23.4549 99.4611 22.5197 100.426 21.1024L103.322 23.0331C102.387 24.4159 100.135 26.7986 96.2437 26.7987C91.4172 26.7987 87.8121 23.0678 87.8121 18.3026C87.8121 13.2502 91.4475 9.80659 95.8257 9.80652ZM86.2457 26.2811H82.606V1.38269H86.2457V26.2811ZM35.8736 13.1581C33.2995 13.1581 31.0816 15.2498 31.0816 18.3065C31.0816 21.3326 33.2995 23.4549 35.8736 23.455C38.4477 23.455 40.6655 21.3288 40.6656 18.3065C40.6656 15.2497 38.4477 13.1581 35.8736 13.1581ZM54.2603 13.1581C51.6863 13.1582 49.4683 15.2498 49.4683 18.3065C49.4684 21.3325 51.6863 23.4548 54.2603 23.455C56.8344 23.455 59.0523 21.3288 59.0523 18.3065C59.0523 15.2497 56.8344 13.1581 54.2603 13.1581ZM72.5894 13.1581C70.0155 13.1582 67.8591 15.3454 67.8589 18.3368C67.8589 21.2977 70.0154 23.4548 72.5894 23.455C75.1291 23.455 77.1255 21.2978 77.1255 18.3368C77.1254 15.3453 75.129 13.1581 72.5894 13.1581ZM95.9527 13.0927C94.0566 13.0927 91.4166 14.7669 91.5123 18.0458L99.105 14.8934C98.6875 13.8325 97.4311 13.0928 95.9527 13.0927Z" fill="#2D2D2D"/>
</svg>
